<svg width="74" height="29" viewBox="0 0 74 29" fill="none" xmlns="http://www.w3.org/2000/svg">
<ellipse cx="59.5" cy="14.5" rx="14.5" ry="14.5" fill="white"/>
<ellipse cx="40.5" cy="19.5" rx="1.5" ry="1.5" fill="white"/>
<path fill-rule="evenodd" clip-rule="evenodd" d="M37.2545 8.32422H33.8263V15.6538L28.6466 8.24121H25.4757V20.9995H28.9122L28.8707 14.0933L34.0919 21.0991H37.2545V8.32422ZM18.3613 21.3149C15.0576 21.3149 12.7832 19.1484 12.7832 16.019V8.32422H16.2197V16.0273C16.2197 17.314 17.1079 18.2021 18.3613 18.2021C19.623 18.2021 20.5112 17.314 20.5112 16.0356V8.32422H23.9478V16.019C23.9478 19.1484 21.6733 21.3149 18.3613 21.3149ZM7.479 14.5332L12.4512 20.9995H8.13477L4.43262 15.8364H4.2998V20.9995H0.863281V8.32422H4.2998V13.6035H4.39111L7.88574 8.32422H11.8535L7.479 14.5332Z" fill="white"/>
<path fill-rule="evenodd" clip-rule="evenodd" d="M48.7305 16.019C48.7305 19.1484 51.0049 21.3149 54.3086 21.3149C57.6206 21.3149 59.895 19.1484 59.895 16.019V8.32422H56.4585V16.0356C56.4585 17.314 55.5703 18.2021 54.3086 18.2021C53.0552 18.2021 52.167 17.314 52.167 16.0273V8.32422H48.7305V16.019ZM65.9466 11.3789L60.659 20.9995H71.2093V17.9365H66.3202L71.5829 8.32422H61.6551V11.3789H65.9466Z" fill="#093076"/>
</svg>
